<?xml version="1.0" encoding="UTF-8"?>
<svg id="_Ñëîé_1" data-name="Ñëîé 1" xmlns="http://www.w3.org/2000/svg" xmlns:xlink="http://www.w3.org/1999/xlink" viewBox="0 0 600 450">
  <defs>
    <radialGradient id="_Áåçûìÿííûé_ãðàäèåíò_67" data-name="Áåçûìÿííûé ãðàäèåíò 67" cx="171.4" cy="135.24" fx="171.4" fy="135.24" r="733.48" gradientTransform="translate(-119.92 -249.28) scale(1.09)" gradientUnits="userSpaceOnUse">
      <stop offset="0" stop-color="#4c02f1"/>
      <stop offset="0" stop-color="#4b02ef"/>
      <stop offset=".13" stop-color="#3802c3"/>
      <stop offset=".25" stop-color="#29029e"/>
      <stop offset=".38" stop-color="#1c037f"/>
      <stop offset=".51" stop-color="#120367"/>
      <stop offset=".65" stop-color="#0b0357"/>
      <stop offset=".81" stop-color="#07034d"/>
      <stop offset="1" stop-color="#06044a"/>
    </radialGradient>
    <linearGradient id="_Áåçûìÿííûé_ãðàäèåíò_33" data-name="Áåçûìÿííûé ãðàäèåíò 33" x1="481.06" y1="306.92" x2="513.67" y2="306.92" gradientUnits="userSpaceOnUse">
      <stop offset="0" stop-color="#e39a65"/>
      <stop offset="1" stop-color="#e95f8d"/>
    </linearGradient>
    <linearGradient id="_Áåçûìÿííûé_ãðàäèåíò_33-2" data-name="Áåçûìÿííûé ãðàäèåíò 33" x1="436.41" y1="262.22" x2="491.19" y2="262.22" xlink:href="#_Áåçûìÿííûé_ãðàäèåíò_33"/>
    <linearGradient id="_Áåçûìÿííûé_ãðàäèåíò_33-3" data-name="Áåçûìÿííûé ãðàäèåíò 33" x1="75.18" y1="280.58" x2="129.96" y2="280.58" xlink:href="#_Áåçûìÿííûé_ãðàäèåíò_33"/>
    <linearGradient id="_Áåçûìÿííûé_ãðàäèåíò_33-4" data-name="Áåçûìÿííûé ãðàäèåíò 33" x1="138.96" y1="277.06" x2="431.32" y2="277.06" xlink:href="#_Áåçûìÿííûé_ãðàäèåíò_33"/>
    <radialGradient id="_Áåçûìÿííûé_ãðàäèåíò_113" data-name="Áåçûìÿííûé ãðàäèåíò 113" cx="300.45" cy="60.61" fx="300.45" fy="60.61" r="223.3" gradientUnits="userSpaceOnUse">
      <stop offset="0" stop-color="#e39a65"/>
      <stop offset=".47" stop-color="#a92ffb"/>
      <stop offset=".59" stop-color="#881bfa"/>
      <stop offset=".74" stop-color="#6507fa"/>
      <stop offset=".8" stop-color="#0d0c6f"/>
    </radialGradient>
    <radialGradient id="_Áåçûìÿííûé_ãðàäèåíò_109" data-name="Áåçûìÿííûé ãðàäèåíò 109" cx="163.87" cy="239.93" fx="163.87" fy="239.93" r="244.17" gradientUnits="userSpaceOnUse">
      <stop offset="0" stop-color="#e39a65"/>
      <stop offset=".47" stop-color="#a92ffb"/>
      <stop offset=".57" stop-color="#881bfa"/>
      <stop offset=".68" stop-color="#6507fa"/>
      <stop offset=".74" stop-color="#0d0c6f"/>
    </radialGradient>
    <radialGradient id="_Áåçûìÿííûé_ãðàäèåíò_343" data-name="Áåçûìÿííûé ãðàäèåíò 343" cx="186.33" cy="190.92" fx="186.33" fy="190.92" r="218.96" gradientUnits="userSpaceOnUse">
      <stop offset="0" stop-color="#e39a65"/>
      <stop offset=".47" stop-color="#a92ffb"/>
      <stop offset=".59" stop-color="#881bfa"/>
      <stop offset=".73" stop-color="#6507fa"/>
      <stop offset="1" stop-color="#3919bb"/>
    </radialGradient>
    <radialGradient id="_Áåçûìÿííûé_ãðàäèåíò_343-2" data-name="Áåçûìÿííûé ãðàäèåíò 343" cx="240.88" cy="107.18" fx="240.88" fy="107.18" r="223.34" xlink:href="#_Áåçûìÿííûé_ãðàäèåíò_343"/>
    <linearGradient id="_Áåçûìÿííûé_ãðàäèåíò_441" data-name="Áåçûìÿííûé ãðàäèåíò 441" x1="265.43" y1="165.81" x2="444.39" y2="165.81" gradientUnits="userSpaceOnUse">
      <stop offset="0" stop-color="#3919bb"/>
      <stop offset="1" stop-color="#6507fa"/>
    </linearGradient>
    <radialGradient id="_Áåçûìÿííûé_ãðàäèåíò_343-3" data-name="Áåçûìÿííûé ãðàäèåíò 343" cx="159.35" cy="59.49" fx="159.35" fy="59.49" r="347.85" xlink:href="#_Áåçûìÿííûé_ãðàäèåíò_343"/>
    <linearGradient id="_Áåçûìÿííûé_ãðàäèåíò_33-5" data-name="Áåçûìÿííûé ãðàäèåíò 33" x1="143.41" y1="190.29" x2="220.18" y2="190.29" xlink:href="#_Áåçûìÿííûé_ãðàäèåíò_33"/>
    <radialGradient id="_Áåçûìÿííûé_ãðàäèåíò_199" data-name="Áåçûìÿííûé ãðàäèåíò 199" cx="150.22" cy="127.67" fx="150.22" fy="127.67" r="165.35" gradientUnits="userSpaceOnUse">
      <stop offset="0" stop-color="#e39a65"/>
      <stop offset=".15" stop-color="#a92ffb"/>
      <stop offset=".41" stop-color="#3919bb"/>
      <stop offset=".93" stop-color="#3919bb"/>
    </radialGradient>
    <linearGradient id="_Áåçûìÿííûé_ãðàäèåíò_144" data-name="Áåçûìÿííûé ãðàäèåíò 144" x1="153.14" y1="107.18" x2="212.45" y2="107.18" gradientUnits="userSpaceOnUse">
      <stop offset="0" stop-color="#e39a65"/>
      <stop offset=".25" stop-color="#a92ffb"/>
      <stop offset=".56" stop-color="#3919bb"/>
    </linearGradient>
    <linearGradient id="_Áåçûìÿííûé_ãðàäèåíò_483" data-name="Áåçûìÿííûé ãðàäèåíò 483" x1="158.7" y1="104.17" x2="206.89" y2="104.17" gradientUnits="userSpaceOnUse">
      <stop offset="0" stop-color="#4f1fec"/>
      <stop offset="1" stop-color="#a92ffb"/>
    </linearGradient>
    <linearGradient id="_Áåçûìÿííûé_ãðàäèåíò_483-2" data-name="Áåçûìÿííûé ãðàäèåíò 483" x1="157.56" x2="205.74" xlink:href="#_Áåçûìÿííûé_ãðàäèåíò_483"/>
    <linearGradient id="_Áåçûìÿííûé_ãðàäèåíò_193" data-name="Áåçûìÿííûé ãðàäèåíò 193" x1="158.71" y1="97.82" x2="219.46" y2="97.82" gradientUnits="userSpaceOnUse">
      <stop offset="0" stop-color="#131060"/>
      <stop offset=".19" stop-color="#140f62"/>
      <stop offset=".28" stop-color="#190f6a"/>
      <stop offset=".36" stop-color="#220f77"/>
      <stop offset=".42" stop-color="#2e0f8a"/>
      <stop offset=".48" stop-color="#3d0ea3"/>
      <stop offset=".54" stop-color="#510ec1"/>
      <stop offset=".58" stop-color="#670de5"/>
      <stop offset=".61" stop-color="#740df8"/>
      <stop offset=".62" stop-color="#7a14ef"/>
      <stop offset=".68" stop-color="#9b3bc2"/>
      <stop offset=".75" stop-color="#b75c9d"/>
      <stop offset=".81" stop-color="#cc7680"/>
      <stop offset=".88" stop-color="#db886b"/>
      <stop offset=".94" stop-color="#e4935f"/>
      <stop offset="1" stop-color="#e8975b"/>
    </linearGradient>
    <radialGradient id="_Áåçûìÿííûé_ãðàäèåíò_223" data-name="Áåçûìÿííûé ãðàäèåíò 223" cx="145.74" cy="90.4" fx="145.74" fy="90.4" r="108.16" gradientUnits="userSpaceOnUse">
      <stop offset="0" stop-color="#e39a65"/>
      <stop offset=".25" stop-color="#a92ffb"/>
      <stop offset=".74" stop-color="#3919bb"/>
    </radialGradient>
    <linearGradient id="_Áåçûìÿííûé_ãðàäèåíò_193-2" data-name="Áåçûìÿííûé ãðàäèåíò 193" x1="178.98" y1="117.43" x2="187.39" y2="117.43" xlink:href="#_Áåçûìÿííûé_ãðàäèåíò_193"/>
  </defs>
  <rect width="600" height="450" style="fill: url(#_Áåçûìÿííûé_ãðàäèåíò_67);"/>
  <path d="m497.36,316.51c-1.2,0-2.41-.31-3.48-.93l-11.74-6.78c-.68-.39-1.09-1.1-1.09-1.88s.41-1.49,1.09-1.88l11.74-6.78c2.15-1.24,4.82-1.24,6.96,0l11.74,6.78c.68.39,1.09,1.1,1.09,1.88s-.41,1.49-1.09,1.88l-11.74,6.78c-1.07.62-2.28.93-3.48.93Zm0-17.32c-.88,0-1.76.23-2.55.68l-11.74,6.78c-.14.08-.16.2-.16.27s.02.19.16.27l11.74,6.78h0c1.57.91,3.53.91,5.1,0l11.74-6.78c.14-.08.16-.2.16-.27s-.02-.19-.16-.27l-11.74-6.78c-.79-.45-1.67-.68-2.55-.68Z" style="fill: url(#_Áåçûìÿííûé_ãðàäèåíò_33);"/>
  <path d="m463.8,278.05c-1.96,0-3.91-.5-5.66-1.51l-20.2-11.66c-.96-.55-1.54-1.55-1.54-2.66s.57-2.1,1.54-2.66l20.2-11.66c3.49-2.01,7.82-2.02,11.31,0l20.2,11.66c.96.55,1.54,1.55,1.54,2.66s-.57,2.1-1.53,2.66l-20.2,11.66c-1.74,1.01-3.7,1.51-5.66,1.51Zm-4.73-3.12c2.92,1.68,6.54,1.68,9.45,0l20.2-11.66c.54-.32.6-.84.6-1.05s-.06-.73-.6-1.05l-20.2-11.66c-2.92-1.68-6.54-1.68-9.45,0l-20.2,11.66c-.54.32-.6.84-.6,1.05s.06.73.6,1.05l20.2,11.66Z" style="fill: url(#_Áåçûìÿííûé_ãðàäèåíò_33-2);"/>
  <path d="m102.57,296.41c-1.96,0-3.91-.5-5.66-1.51l-20.2-11.66c-.96-.56-1.54-1.55-1.54-2.66s.57-2.1,1.54-2.66l20.2-11.66c3.49-2.02,7.82-2.02,11.31,0l20.2,11.66c.96.55,1.54,1.55,1.54,2.66s-.57,2.1-1.54,2.66l-20.2,11.66c-1.74,1.01-3.7,1.51-5.66,1.51Zm0-29.8c-1.63,0-3.27.42-4.73,1.26l-20.2,11.66c-.54.32-.6.84-.6,1.05s.06.73.6,1.05l20.2,11.66h0c2.92,1.68,6.54,1.68,9.45,0l20.2-11.66c.55-.32.6-.84.6-1.05s-.06-.73-.6-1.05l-20.2-11.66c-1.46-.84-3.09-1.26-4.73-1.26Z" style="fill: url(#_Áåçûìÿííûé_ãðàäèåíò_33-3);"/>
  <g>
    <path d="m307.12,347.28l-144.43-83.39c-2.11-1.22-1.84-3.34.59-4.74l92.7-53.52c2.43-1.4,6.11-1.56,8.21-.34l144.43,83.39c2.11,1.22,1.84,3.34-.59,4.74l-92.7,53.52c-2.43,1.4-6.11,1.56-8.21.34Z" style="fill: #020230; opacity: .6;"/>
    <path d="m310.43,362.34c-1.69,0-3.31-.35-4.54-1.07h0l-164.84-95.17c-1.35-.78-2.09-1.9-2.09-3.16,0-1.45,1.01-2.86,2.76-3.87l112.36-65.83c3.08-1.78,7.61-1.95,10.31-.39l164.84,95.17c1.35.78,2.09,1.9,2.09,3.16,0,1.45-1.01,2.85-2.76,3.87l-112.36,65.83c-1.67.96-3.77,1.46-5.76,1.46Zm-50.56-168.68c-1.69,0-3.48.41-4.85,1.2l-112.36,65.83c-1.15.67-1.83,1.51-1.83,2.26s.63,1.24,1.16,1.54l164.84,95.17h0c2.1,1.22,5.97,1.04,8.44-.39l112.36-65.83c1.15-.67,1.83-1.51,1.83-2.26s-.63-1.24-1.16-1.54l-164.84-95.17c-.94-.54-2.23-.81-3.59-.81Z" style="fill: url(#_Áåçûìÿííûé_ãðàäèåíò_33-4);"/>
    <path d="m446.99,148.88l-143.86-83.06c-.99-.57-2.02-.69-2.94-.42h0s0,0,0,0c0,0,0,0-.01,0l-2.66.93.94.22c-.38.45-.68,1-.88,1.65l-32.53,105.63c-.81,2.62.37,5.8,2.64,7.11l143.86,83.06c.35.2.7.34,1.06.43l-.36.78,2.54-.89h0c1.04-.42,1.9-1.35,2.31-2.69l32.53-105.63c.81-2.62-.37-5.8-2.64-7.11Z" style="fill: url(#_Áåçûìÿííûé_ãðàäèåíò_113);"/>
    <path d="m406.39,267.94l.05.06-142.1-82.04c-2.09-1.21-5.74-1.06-8.16.34l-91.81,53.01-3.06-1.17.86,4.3h0c.11.64.57,1.25,1.38,1.72l143.41,82.8c2.09,1.21,5.74,1.06,8.16-.34l92.04-53.14c1.14-.66,1.79-1.47,1.95-2.27h0s.88-4.17.88-4.17l-3.61.92Z" style="fill: url(#_Áåçûìÿííûé_ãðàäèåíò_109);"/>
    <path d="m307.12,323.17l-144.43-83.39c-2.11-1.22-1.84-3.34.59-4.74l92.7-53.52c2.43-1.4,6.11-1.56,8.21-.34l144.43,83.39c2.11,1.22,1.84,3.34-.59,4.74l-92.7,53.52c-2.43,1.4-6.11,1.56-8.21.34Z" style="fill: url(#_Áåçûìÿííûé_ãðàäèåíò_343);"/>
    <path d="m408.03,268.19l-92.7,53.52c-2.43,1.4-6.11,1.56-8.21.34l-144.43-83.39c-.72-.41-1.14-.94-1.31-1.5-.28.97.13,1.94,1.31,2.62l144.43,83.39c2.11,1.22,5.78,1.06,8.21-.34l92.7-53.52c1.6-.93,2.24-2.16,1.9-3.24-.22.75-.84,1.51-1.9,2.12Z" style="fill: #fff;"/>
    <g style="fill: none; opacity: .4;">
      <path d="m231.58,226.25l-4.88-2.82c-.39-.23-.34-.62.11-.88l5.76-3.32c.45-.26,1.14-.29,1.53-.06l4.88,2.82c.39.23.34.62-.11.88l-5.76,3.32c-.45.26-1.14.29-1.53.06Z" style="fill: #06033e;"/>
      <path d="m239.11,230.6l-4.88-2.82c-.39-.23-.34-.62.11-.88l5.76-3.32c.45-.26,1.14-.29,1.53-.06l4.88,2.82c.39.23.34.62-.11.88l-5.76,3.32c-.45.26-1.14.29-1.53.06Z" style="fill: #06033e;"/>
      <path d="m246.64,234.95l-4.88-2.82c-.39-.23-.34-.62.11-.88l5.76-3.32c.45-.26,1.14-.29,1.53-.06l4.88,2.82c.39.23.34.62-.11.88l-5.76,3.32c-.45.26-1.14.29-1.53.06Z" style="fill: #06033e;"/>
      <path d="m257.06,231.36l-4.88-2.82c-.39-.23-.34-.62.11-.88l4.83-2.79c.45-.26,1.14-.29,1.53-.06l4.88,2.82c.39.23.34.62-.11.88l-4.83,2.79c-.45.26-1.14.29-1.53.06Z" style="fill: #06033e;"/>
      <path d="m264.59,235.7l-4.88-2.82c-.39-.23-.34-.62.11-.88l4.83-2.79c.45-.26,1.14-.29,1.53-.06l4.88,2.82c.39.23.34.62-.11.88l-4.83,2.79c-.45.26-1.14.29-1.53.06Z" style="fill: #06033e;"/>
      <path d="m272.12,240.05l-4.88-2.82c-.39-.23-.34-.62.11-.88l4.83-2.79c.45-.26,1.14-.29,1.53-.06l4.88,2.82c.39.23.34.62-.11.88l-4.83,2.79c-.45.26-1.14.29-1.53.06Z" style="fill: #06033e;"/>
      <path d="m279.65,244.4l-4.88-2.82c-.39-.23-.34-.62.11-.88l4.83-2.79c.45-.26,1.14-.29,1.53-.06l4.88,2.82c.39.23.34.62-.11.88l-4.83,2.79c-.45.26-1.14.29-1.53.06Z" style="fill: #06033e;"/>
      <path d="m287.18,248.75l-4.88-2.82c-.39-.23-.34-.62.11-.88l4.83-2.79c.45-.26,1.14-.29,1.53-.06l4.88,2.82c.39.23.34.62-.11.88l-4.83,2.79c-.45.26-1.14.29-1.53.06Z" style="fill: #06033e;"/>
      <path d="m294.71,253.09l-4.88-2.82c-.39-.23-.34-.62.11-.88l4.83-2.79c.45-.26,1.14-.29,1.53-.06l4.88,2.82c.39.23.34.62-.11.88l-4.83,2.79c-.45.26-1.14.29-1.53.06Z" style="fill: #06033e;"/>
      <path d="m302.24,257.44l-4.88-2.82c-.39-.23-.34-.62.11-.88l4.83-2.79c.45-.26,1.14-.29,1.53-.06l4.88,2.82c.39.23.34.62-.11.88l-4.83,2.79c-.45.26-1.14.29-1.53.06Z" style="fill: #06033e;"/>
      <path d="m309.77,261.79l-4.88-2.82c-.39-.23-.34-.62.11-.88l4.83-2.79c.45-.26,1.14-.29,1.53-.06l4.88,2.82c.39.23.34.62-.11.88l-4.83,2.79c-.45.26-1.14.29-1.53.06Z" style="fill: #06033e;"/>
      <path d="m317.3,266.14l-4.88-2.82c-.39-.23-.34-.62.11-.88l4.83-2.79c.45-.26,1.14-.29,1.53-.06l4.88,2.82c.39.23.34.62-.11.88l-4.83,2.79c-.45.26-1.14.29-1.53.06Z" style="fill: #06033e;"/>
      <path d="m324.83,270.48l-4.88-2.82c-.39-.23-.34-.62.11-.88l4.83-2.79c.45-.26,1.14-.29,1.53-.06l4.88,2.82c.39.23.34.62-.11.88l-4.83,2.79c-.45.26-1.14.29-1.53.06Z" style="fill: #06033e;"/>
      <path d="m268.15,229.3l-4.88-2.82c-.39-.23-.34-.62.11-.88l4.83-2.79c.45-.26,1.14-.29,1.53-.06l4.88,2.82c.39.23.34.62-.11.88l-4.83,2.79c-.45.26-1.14.29-1.53.06Z" style="fill: #06033e;"/>
      <path d="m260.51,224.89l-4.88-2.82c-.39-.23-.34-.62.11-.88l4.83-2.79c.45-.26,1.14-.29,1.53-.06l4.88,2.82c.39.23.34.62-.11.88l-4.83,2.79c-.45.26-1.14.29-1.53.06Z" style="fill: #06033e;"/>
      <path d="m252.85,220.47l-10.5-6.06c-.39-.23-.34-.62.11-.88l4.83-2.79c.45-.26,1.14-.29,1.53-.06l10.5,6.06c.39.23.34.62-.11.88l-4.83,2.79c-.45.26-1.14.29-1.53.06Z" style="fill: #06033e;"/>
      <path d="m258.2,215.09l-8.52-4.92c-.39-.23-.34-.62.11-.88l4.83-2.79c.45-.26,1.14-.29,1.53-.06l8.52,4.92c.39.23.34.62-.11.88l-4.83,2.79c-.45.26-1.14.29-1.53.06Z" style="fill: #06033e;"/>
      <path d="m275.68,233.65l-4.88-2.82c-.39-.23-.34-.62.11-.88l4.83-2.79c.45-.26,1.14-.29,1.53-.06l4.88,2.82c.39.23.34.62-.11.88l-4.83,2.79c-.45.26-1.14.29-1.53.06Z" style="fill: #06033e;"/>
      <path d="m283.21,237.99l-4.88-2.82c-.39-.23-.34-.62.11-.88l4.83-2.79c.45-.26,1.14-.29,1.53-.06l4.88,2.82c.39.23.34.62-.11.88l-4.83,2.79c-.45.26-1.14.29-1.53.06Z" style="fill: #06033e;"/>
      <path d="m290.74,242.34l-4.88-2.82c-.39-.23-.34-.62.11-.88l4.83-2.79c.45-.26,1.14-.29,1.53-.06l4.88,2.82c.39.23.34.62-.11.88l-4.83,2.79c-.45.26-1.14.29-1.53.06Z" style="fill: #06033e;"/>
      <path d="m298.27,246.69l-4.88-2.82c-.39-.23-.34-.62.11-.88l4.83-2.79c.45-.26,1.14-.29,1.53-.06l4.88,2.82c.39.23.34.62-.11.88l-4.83,2.79c-.45.26-1.14.29-1.53.06Z" style="fill: #06033e;"/>
      <path d="m305.8,251.04l-4.88-2.82c-.39-.23-.34-.62.11-.88l4.83-2.79c.45-.26,1.14-.29,1.53-.06l4.88,2.82c.39.23.34.62-.11.88l-4.83,2.79c-.45.26-1.14.29-1.53.06Z" style="fill: #06033e;"/>
      <path d="m313.33,255.38l-4.88-2.82c-.39-.23-.34-.62.11-.88l4.83-2.79c.45-.26,1.14-.29,1.53-.06l4.88,2.82c.39.23.34.62-.11.88l-4.83,2.79c-.45.26-1.14.29-1.53.06Z" style="fill: #06033e;"/>
      <path d="m320.86,259.73l-4.88-2.82c-.39-.23-.34-.62.11-.88l4.83-2.79c.45-.26,1.14-.29,1.53-.06l4.88,2.82c.39.23.34.62-.11.88l-4.83,2.79c-.45.26-1.14.29-1.53.06Z" style="fill: #06033e;"/>
      <path d="m328.39,264.08l-4.88-2.82c-.39-.23-.34-.62.11-.88l4.83-2.79c.45-.26,1.14-.29,1.53-.06l4.88,2.82c.39.23.34.62-.11.88l-4.83,2.79c-.45.26-1.14.29-1.53.06Z" style="fill: #06033e;"/>
      <path d="m335.92,268.43l-4.88-2.82c-.39-.23-.34-.62.11-.88l4.83-2.79c.45-.26,1.14-.29,1.53-.06l4.88,2.82c.39.23.34.62-.11.88l-4.83,2.79c-.45.26-1.14.29-1.53.06Z" style="fill: #06033e;"/>
      <path d="m349.31,276.16l-10.64-6.14c-.39-.23-.34-.62.11-.88l4.83-2.79c.45-.26,1.14-.29,1.53-.06l10.64,6.14c.39.23.34.62-.11.88l-4.83,2.79c-.45.26-1.14.29-1.53.06Z" style="fill: #06033e;"/>
      <path d="m363.97,267.69l-8.98-5.18c-.39-.23-.34-.62.11-.88l4.83-2.79c.45-.26,1.14-.29,1.53-.06l8.98,5.18c.39.23.34.62-.11.88l-4.83,2.79c-.45.26-1.14.29-1.53.06Z" style="fill: #06033e;"/>
      <path d="m288.87,232.79l-4.88-2.82c-.39-.23-.34-.62.11-.88l4.83-2.79c.45-.26,1.14-.29,1.53-.06l4.88,2.82c.39.23.34.62-.11.88l-4.83,2.79c-.45.26-1.14.29-1.53.06Z" style="fill: #06033e;"/>
      <path d="m281.15,228.34l-4.88-2.82c-.39-.23-.34-.62.11-.88l4.83-2.79c.45-.26,1.14-.29,1.53-.06l4.88,2.82c.39.23.34.62-.11.88l-4.83,2.79c-.45.26-1.14.29-1.53.06Z" style="fill: #06033e;"/>
      <path d="m273.43,223.88l-4.88-2.82c-.39-.23-.34-.62.11-.88l4.83-2.79c.45-.26,1.14-.29,1.53-.06l4.88,2.82c.39.23.34.62-.11.88l-4.83,2.79c-.45.26-1.14.29-1.53.06Z" style="fill: #06033e;"/>
      <path d="m265.72,219.43l-4.88-2.82c-.39-.23-.34-.62.11-.88l4.83-2.79c.45-.26,1.14-.29,1.53-.06l4.88,2.82c.39.23.34.62-.11.88l-4.83,2.79c-.45.26-1.14.29-1.53.06Z" style="fill: #06033e;"/>
      <path d="m296.4,237.14l-4.88-2.82c-.39-.23-.34-.62.11-.88l4.83-2.79c.45-.26,1.14-.29,1.53-.06l4.88,2.82c.39.23.34.62-.11.88l-4.83,2.79c-.45.26-1.14.29-1.53.06Z" style="fill: #06033e;"/>
      <path d="m303.93,241.49l-4.88-2.82c-.39-.23-.34-.62.11-.88l4.83-2.79c.45-.26,1.14-.29,1.53-.06l4.88,2.82c.39.23.34.62-.11.88l-4.83,2.79c-.45.26-1.14.29-1.53.06Z" style="fill: #06033e;"/>
      <path d="m311.46,245.84l-4.88-2.82c-.39-.23-.34-.62.11-.88l4.83-2.79c.45-.26,1.14-.29,1.53-.06l4.88,2.82c.39.23.34.62-.11.88l-4.83,2.79c-.45.26-1.14.29-1.53.06Z" style="fill: #06033e;"/>
      <path d="m318.99,250.19l-4.88-2.82c-.39-.23-.34-.62.11-.88l4.83-2.79c.45-.26,1.14-.29,1.53-.06l4.88,2.82c.39.23.34.62-.11.88l-4.83,2.79c-.45.26-1.14.29-1.53.06Z" style="fill: #06033e;"/>
      <path d="m326.52,254.53l-4.88-2.82c-.39-.23-.34-.62.11-.88l4.83-2.79c.45-.26,1.14-.29,1.53-.06l4.88,2.82c.39.23.34.62-.11.88l-4.83,2.79c-.45.26-1.14.29-1.53.06Z" style="fill: #06033e;"/>
      <path d="m334.05,258.88l-4.88-2.82c-.39-.23-.34-.62.11-.88l4.83-2.79c.45-.26,1.14-.29,1.53-.06l4.88,2.82c.39.23.34.62-.11.88l-4.83,2.79c-.45.26-1.14.29-1.53.06Z" style="fill: #06033e;"/>
      <path d="m341.58,263.23l-4.88-2.82c-.39-.23-.34-.62.11-.88l4.83-2.79c.45-.26,1.14-.29,1.53-.06l4.88,2.82c.39.23.34.62-.11.88l-4.83,2.79c-.45.26-1.14.29-1.53.06Z" style="fill: #06033e;"/>
      <path d="m349.11,267.58l-4.88-2.82c-.39-.23-.34-.62.11-.88l4.83-2.79c.45-.26,1.14-.29,1.53-.06l4.88,2.82c.39.23.34.62-.11.88l-4.83,2.79c-.45.26-1.14.29-1.53.06Z" style="fill: #06033e;"/>
      <path d="m356.64,271.92l-4.88-2.82c-.39-.23-.34-.62.11-.88l4.83-2.79c.45-.26,1.14-.29,1.53-.06l4.88,2.82c.39.23.34.62-.11.88l-4.83,2.79c-.45.26-1.14.29-1.53.06Z" style="fill: #06033e;"/>
      <path d="m284.9,222.04l-4.88-2.82c-.39-.23-.34-.62.11-.88l4.83-2.79c.45-.26,1.14-.29,1.53-.06l4.88,2.82c.39.23.34.62-.11.88l-4.83,2.79c-.45.26-1.14.29-1.53.06Z" style="fill: #06033e;"/>
      <path d="m277.41,217.72l-4.88-2.82c-.39-.23-.34-.62.11-.88l4.83-2.79c.45-.26,1.14-.29,1.53-.06l4.88,2.82c.39.23.34.62-.11.88l-4.83,2.79c-.45.26-1.14.29-1.53.06Z" style="fill: #06033e;"/>
      <path d="m269.92,213.39l-4.88-2.82c-.39-.23-.34-.62.11-.88l4.83-2.79c.45-.26,1.14-.29,1.53-.06l4.88,2.82c.39.23.34.62-.11.88l-4.83,2.79c-.45.26-1.14.29-1.53.06Z" style="fill: #06033e;"/>
      <path d="m262.43,209.06l-4.88-2.82c-.39-.23-.34-.62.11-.88l4.83-2.79c.45-.26,1.14-.29,1.53-.06l4.88,2.82c.39.23.34.62-.11.88l-4.83,2.79c-.45.26-1.14.29-1.53.06Z" style="fill: #06033e;"/>
      <path d="m270.13,204.61l-4.88-2.82c-.39-.23-.34-.62.11-.88l1.6-.92c.45-.26,1.14-.29,1.53-.06l4.88,2.82c.39.23.34.62-.11.88l-1.6.92c-.45.26-1.14.29-1.53.06Z" style="fill: #06033e;"/>
      <path d="m279.91,210.26l-4.88-2.82c-.39-.23-.34-.62.11-.88l1.6-.92c.45-.26,1.14-.29,1.53-.06l4.88,2.82c.39.23.34.62-.11.88l-1.6.92c-.45.26-1.14.29-1.53.06Z" style="fill: #06033e;"/>
      <path d="m287.37,214.57l-4.88-2.82c-.39-.23-.34-.62.11-.88l1.6-.92c.45-.26,1.14-.29,1.53-.06l4.88,2.82c.39.23.34.62-.11.88l-1.6.92c-.45.26-1.14.29-1.53.06Z" style="fill: #06033e;"/>
      <path d="m294.83,218.88l-4.88-2.82c-.39-.23-.34-.62.11-.88l1.6-.92c.45-.26,1.14-.29,1.53-.06l4.88,2.82c.39.23.34.62-.11.88l-1.6.92c-.45.26-1.14.29-1.53.06Z" style="fill: #06033e;"/>
      <path d="m302.29,223.18l-4.88-2.82c-.39-.23-.34-.62.11-.88l1.6-.92c.45-.26,1.14-.29,1.53-.06l4.88,2.82c.39.23.34.62-.11.88l-1.6.92c-.45.26-1.14.29-1.53.06Z" style="fill: #06033e;"/>
      <path d="m343.95,247.23l-4.88-2.82c-.39-.23-.34-.62.11-.88l1.6-.92c.45-.26,1.14-.29,1.53-.06l4.88,2.82c.39.23.34.62-.11.88l-1.6.92c-.45.26-1.14.29-1.53.06Z" style="fill: #06033e;"/>
      <path d="m351.41,251.54l-4.88-2.82c-.39-.23-.34-.62.11-.88l1.6-.92c.45-.26,1.14-.29,1.53-.06l4.88,2.82c.39.23.34.62-.11.88l-1.6.92c-.45.26-1.14.29-1.53.06Z" style="fill: #06033e;"/>
      <path d="m358.87,255.85l-4.88-2.82c-.39-.23-.34-.62.11-.88l1.6-.92c.45-.26,1.14-.29,1.53-.06l4.88,2.82c.39.23.34.62-.11.88l-1.6.92c-.45.26-1.14.29-1.53.06Z" style="fill: #06033e;"/>
      <path d="m366.34,260.16l-4.88-2.82c-.39-.23-.34-.62.11-.88l1.6-.92c.45-.26,1.14-.29,1.53-.06l4.88,2.82c.39.23.34.62-.11.88l-1.6.92c-.45.26-1.14.29-1.53.06Z" style="fill: #06033e;"/>
      <path d="m292.43,226.39l-4.88-2.82c-.39-.23-.34-.62.11-.88l4.83-2.79c.45-.26,1.14-.29,1.53-.06l4.88,2.82c.39.23.34.62-.11.88l-4.83,2.79c-.45.26-1.14.29-1.53.06Z" style="fill: #06033e;"/>
      <path d="m299.96,230.74l-4.88-2.82c-.39-.23-.34-.62.11-.88l4.83-2.79c.45-.26,1.14-.29,1.53-.06l4.88,2.82c.39.23.34.62-.11.88l-4.83,2.79c-.45.26-1.14.29-1.53.06Z" style="fill: #06033e;"/>
      <path d="m307.49,235.08l-4.88-2.82c-.39-.23-.34-.62.11-.88l4.83-2.79c.45-.26,1.14-.29,1.53-.06l4.88,2.82c.39.23.34.62-.11.88l-4.83,2.79c-.45.26-1.14.29-1.53.06Z" style="fill: #06033e;"/>
      <path d="m315.03,239.43l-4.88-2.82c-.39-.23-.34-.62.11-.88l4.83-2.79c.45-.26,1.14-.29,1.53-.06l4.88,2.82c.39.23.34.62-.11.88l-4.83,2.79c-.45.26-1.14.29-1.53.06Z" style="fill: #06033e;"/>
      <path d="m322.56,243.78l-4.88-2.82c-.39-.23-.34-.62.11-.88l4.83-2.79c.45-.26,1.14-.29,1.53-.06l4.88,2.82c.39.23.34.62-.11.88l-4.83,2.79c-.45.26-1.14.29-1.53.06Z" style="fill: #06033e;"/>
      <path d="m330.09,248.13l-4.88-2.82c-.39-.23-.34-.62.11-.88l4.83-2.79c.45-.26,1.14-.29,1.53-.06l4.88,2.82c.39.23.34.62-.11.88l-4.83,2.79c-.45.26-1.14.29-1.53.06Z" style="fill: #06033e;"/>
      <path d="m337.62,252.47l-4.88-2.82c-.39-.23-.34-.62.11-.88l4.83-2.79c.45-.26,1.14-.29,1.53-.06l4.88,2.82c.39.23.34.62-.11.88l-4.83,2.79c-.45.26-1.14.29-1.53.06Z" style="fill: #06033e;"/>
      <path d="m345.15,256.82l-4.88-2.82c-.39-.23-.34-.62.11-.88l4.83-2.79c.45-.26,1.14-.29,1.53-.06l4.88,2.82c.39.23.34.62-.11.88l-4.83,2.79c-.45.26-1.14.29-1.53.06Z" style="fill: #06033e;"/>
      <path d="m352.68,261.17l-4.88-2.82c-.39-.23-.34-.62.11-.88l4.83-2.79c.45-.26,1.14-.29,1.53-.06l4.88,2.82c.39.23.34.62-.11.88l-4.83,2.79c-.45.26-1.14.29-1.53.06Z" style="fill: #06033e;"/>
      <path d="m249.38,226.93l-14.36-8.29c-.39-.23-.34-.62.11-.88l4.83-2.79c.45-.26,1.14-.29,1.53-.06l14.36,8.29c.39.23.34.62-.11.88l-4.83,2.79c-.45.26-1.14.29-1.53.06Z" style="fill: #06033e;"/>
      <path d="m341.89,280.34l-14.36-8.29c-.39-.23-.34-.62.11-.88l4.83-2.79c.45-.26,1.14-.29,1.53-.06l14.36,8.29c.39.23.34.62-.11.88l-4.83,2.79c-.45.26-1.14.29-1.53.06Z" style="fill: #06033e;"/>
      <path d="m311.78,272.55l-4.88-2.82c-.39-.23-.34-.62.11-.88l5.76-3.32c.45-.26,1.14-.29,1.53-.06l4.88,2.82c.39.23.34.62-.11.88l-5.76,3.32c-.45.26-1.14.29-1.53.06Z" style="fill: #06033e;"/>
      <path d="m257.09,240.98l-7.8-4.5c-.39-.23-.34-.62.11-.88l5.76-3.32c.45-.26,1.14-.29,1.53-.06l7.8,4.5c.39.23.34.62-.11.88l-5.76,3.32c-.45.26-1.14.29-1.53.06Z" style="fill: #06033e;"/>
      <path d="m304.52,268.36l-7.8-4.5c-.39-.23-.34-.62.11-.88l5.76-3.32c.45-.26,1.14-.29,1.53-.06l7.8,4.5c.39.23.34.62-.11.88l-5.76,3.32c-.45.26-1.14.29-1.53.06Z" style="fill: #06033e;"/>
      <path d="m267.96,247.25l-7.8-4.5c-.39-.23-.34-.62.11-.88l5.76-3.32c.45-.26,1.14-.29,1.53-.06l7.8,4.5c.39.23.34.62-.11.88l-5.76,3.32c-.45.26-1.14.29-1.53.06Z" style="fill: #06033e;"/>
      <path d="m267.61,238.51l33.9,19.58c.42.24.42.64,0,.88l-5.87,3.39c-.42.24-1.1.24-1.52,0l-33.9-19.57,7.39-4.27Z" style="fill: #06033e;"/>
      <path d="m332.83,280.44l5.43,3.14c.32.19.28.51-.09.72l-2.35,1.36c-.37.21-.93.24-1.25.05l-5.43-3.14c-.32-.19-.28-.51.09-.72l2.35-1.36c.37-.21.93-.24,1.25-.05Z" style="fill: #06033e;"/>
      <path d="m325.23,276.05l5.43,3.14c.32.19.28.51-.09.72l-2.35,1.36c-.37.21-.93.24-1.25.05l-5.43-3.14c-.32-.19-.28-.51.09-.72l2.35-1.36c.37-.21.93-.24,1.25-.05Z" style="fill: #06033e;"/>
      <path d="m317.7,271.7l5.43,3.14c.32.19.28.51-.09.72l-2.35,1.36c-.37.21-.93.24-1.25.05l-5.43-3.14c-.32-.19-.28-.51.09-.72l2.35-1.36c.37-.21.93-.24,1.25-.05Z" style="fill: #06033e;"/>
      <path d="m329.39,273.65l5.43,3.14c.32.19.28.51-.09.72l-2.35,1.36c-.37.21-.93.24-1.25.05l-5.43-3.14c-.32-.19-.28-.51.09-.72l2.35-1.36c.37-.21.93-.24,1.25-.05Z" style="fill: #06033e;"/>
    </g>
    <g style="fill: none; opacity: .4;">
      <path d="m231.58,226.25l-4.88-2.82c-.39-.23-.34-.62.11-.88l5.76-3.32c.45-.26,1.14-.29,1.53-.06l4.88,2.82c.39.23.34.62-.11.88l-5.76,3.32c-.45.26-1.14.29-1.53.06Z" style="fill: #06033e;"/>
      <path d="m239.11,230.6l-4.88-2.82c-.39-.23-.34-.62.11-.88l5.76-3.32c.45-.26,1.14-.29,1.53-.06l4.88,2.82c.39.23.34.62-.11.88l-5.76,3.32c-.45.26-1.14.29-1.53.06Z" style="fill: #06033e;"/>
      <path d="m246.64,234.95l-4.88-2.82c-.39-.23-.34-.62.11-.88l5.76-3.32c.45-.26,1.14-.29,1.53-.06l4.88,2.82c.39.23.34.62-.11.88l-5.76,3.32c-.45.26-1.14.29-1.53.06Z" style="fill: #06033e;"/>
      <path d="m257.06,231.36l-4.88-2.82c-.39-.23-.34-.62.11-.88l4.83-2.79c.45-.26,1.14-.29,1.53-.06l4.88,2.82c.39.23.34.62-.11.88l-4.83,2.79c-.45.26-1.14.29-1.53.06Z" style="fill: #06033e;"/>
      <path d="m264.59,235.7l-4.88-2.82c-.39-.23-.34-.62.11-.88l4.83-2.79c.45-.26,1.14-.29,1.53-.06l4.88,2.82c.39.23.34.62-.11.88l-4.83,2.79c-.45.26-1.14.29-1.53.06Z" style="fill: #06033e;"/>
      <path d="m272.12,240.05l-4.88-2.82c-.39-.23-.34-.62.11-.88l4.83-2.79c.45-.26,1.14-.29,1.53-.06l4.88,2.82c.39.23.34.62-.11.88l-4.83,2.79c-.45.26-1.14.29-1.53.06Z" style="fill: #06033e;"/>
      <path d="m279.65,244.4l-4.88-2.82c-.39-.23-.34-.62.11-.88l4.83-2.79c.45-.26,1.14-.29,1.53-.06l4.88,2.82c.39.23.34.62-.11.88l-4.83,2.79c-.45.26-1.14.29-1.53.06Z" style="fill: #06033e;"/>
      <path d="m287.18,248.75l-4.88-2.82c-.39-.23-.34-.62.11-.88l4.83-2.79c.45-.26,1.14-.29,1.53-.06l4.88,2.82c.39.23.34.62-.11.88l-4.83,2.79c-.45.26-1.14.29-1.53.06Z" style="fill: #06033e;"/>
      <path d="m294.71,253.09l-4.88-2.82c-.39-.23-.34-.62.11-.88l4.83-2.79c.45-.26,1.14-.29,1.53-.06l4.88,2.82c.39.23.34.62-.11.88l-4.83,2.79c-.45.26-1.14.29-1.53.06Z" style="fill: #06033e;"/>
      <path d="m302.24,257.44l-4.88-2.82c-.39-.23-.34-.62.11-.88l4.83-2.79c.45-.26,1.14-.29,1.53-.06l4.88,2.82c.39.23.34.62-.11.88l-4.83,2.79c-.45.26-1.14.29-1.53.06Z" style="fill: #06033e;"/>
      <path d="m309.77,261.79l-4.88-2.82c-.39-.23-.34-.62.11-.88l4.83-2.79c.45-.26,1.14-.29,1.53-.06l4.88,2.82c.39.23.34.62-.11.88l-4.83,2.79c-.45.26-1.14.29-1.53.06Z" style="fill: #06033e;"/>
      <path d="m317.3,266.14l-4.88-2.82c-.39-.23-.34-.62.11-.88l4.83-2.79c.45-.26,1.14-.29,1.53-.06l4.88,2.82c.39.23.34.62-.11.88l-4.83,2.79c-.45.26-1.14.29-1.53.06Z" style="fill: #06033e;"/>
      <path d="m324.83,270.48l-4.88-2.82c-.39-.23-.34-.62.11-.88l4.83-2.79c.45-.26,1.14-.29,1.53-.06l4.88,2.82c.39.23.34.62-.11.88l-4.83,2.79c-.45.26-1.14.29-1.53.06Z" style="fill: #06033e;"/>
      <path d="m268.15,229.3l-4.88-2.82c-.39-.23-.34-.62.11-.88l4.83-2.79c.45-.26,1.14-.29,1.53-.06l4.88,2.82c.39.23.34.62-.11.88l-4.83,2.79c-.45.26-1.14.29-1.53.06Z" style="fill: #06033e;"/>
      <path d="m260.51,224.89l-4.88-2.82c-.39-.23-.34-.62.11-.88l4.83-2.79c.45-.26,1.14-.29,1.53-.06l4.88,2.82c.39.23.34.62-.11.88l-4.83,2.79c-.45.26-1.14.29-1.53.06Z" style="fill: #06033e;"/>
      <path d="m252.85,220.47l-10.5-6.06c-.39-.23-.34-.62.11-.88l4.83-2.79c.45-.26,1.14-.29,1.53-.06l10.5,6.06c.39.23.34.62-.11.88l-4.83,2.79c-.45.26-1.14.29-1.53.06Z" style="fill: #06033e;"/>
      <path d="m258.2,215.09l-8.52-4.92c-.39-.23-.34-.62.11-.88l4.83-2.79c.45-.26,1.14-.29,1.53-.06l8.52,4.92c.39.23.34.62-.11.88l-4.83,2.79c-.45.26-1.14.29-1.53.06Z" style="fill: #06033e;"/>
      <path d="m275.68,233.65l-4.88-2.82c-.39-.23-.34-.62.11-.88l4.83-2.79c.45-.26,1.14-.29,1.53-.06l4.88,2.82c.39.23.34.62-.11.88l-4.83,2.79c-.45.26-1.14.29-1.53.06Z" style="fill: #06033e;"/>
      <path d="m283.21,237.99l-4.88-2.82c-.39-.23-.34-.62.11-.88l4.83-2.79c.45-.26,1.14-.29,1.53-.06l4.88,2.82c.39.23.34.62-.11.88l-4.83,2.79c-.45.26-1.14.29-1.53.06Z" style="fill: #06033e;"/>
      <path d="m290.74,242.34l-4.88-2.82c-.39-.23-.34-.62.11-.88l4.83-2.79c.45-.26,1.14-.29,1.53-.06l4.88,2.82c.39.23.34.62-.11.88l-4.83,2.79c-.45.26-1.14.29-1.53.06Z" style="fill: #06033e;"/>
      <path d="m298.27,246.69l-4.88-2.82c-.39-.23-.34-.62.11-.88l4.83-2.79c.45-.26,1.14-.29,1.53-.06l4.88,2.82c.39.23.34.62-.11.88l-4.83,2.79c-.45.26-1.14.29-1.53.06Z" style="fill: #06033e;"/>
      <path d="m305.8,251.04l-4.88-2.82c-.39-.23-.34-.62.11-.88l4.83-2.79c.45-.26,1.14-.29,1.53-.06l4.88,2.82c.39.23.34.62-.11.88l-4.83,2.79c-.45.26-1.14.29-1.53.06Z" style="fill: #06033e;"/>
      <path d="m313.33,255.38l-4.88-2.82c-.39-.23-.34-.62.11-.88l4.83-2.79c.45-.26,1.14-.29,1.53-.06l4.88,2.82c.39.23.34.62-.11.88l-4.83,2.79c-.45.26-1.14.29-1.53.06Z" style="fill: #06033e;"/>
      <path d="m320.86,259.73l-4.88-2.82c-.39-.23-.34-.62.11-.88l4.83-2.79c.45-.26,1.14-.29,1.53-.06l4.88,2.82c.39.23.34.62-.11.88l-4.83,2.79c-.45.26-1.14.29-1.53.06Z" style="fill: #06033e;"/>
      <path d="m328.39,264.08l-4.88-2.82c-.39-.23-.34-.62.11-.88l4.83-2.79c.45-.26,1.14-.29,1.53-.06l4.88,2.82c.39.23.34.62-.11.88l-4.83,2.79c-.45.26-1.14.29-1.53.06Z" style="fill: #06033e;"/>
      <path d="m335.92,268.43l-4.88-2.82c-.39-.23-.34-.62.11-.88l4.83-2.79c.45-.26,1.14-.29,1.53-.06l4.88,2.82c.39.23.34.62-.11.88l-4.83,2.79c-.45.26-1.14.29-1.53.06Z" style="fill: #06033e;"/>
      <path d="m349.31,276.16l-10.64-6.14c-.39-.23-.34-.62.11-.88l4.83-2.79c.45-.26,1.14-.29,1.53-.06l10.64,6.14c.39.23.34.62-.11.88l-4.83,2.79c-.45.26-1.14.29-1.53.06Z" style="fill: #06033e;"/>
      <path d="m363.97,267.69l-8.98-5.18c-.39-.23-.34-.62.11-.88l4.83-2.79c.45-.26,1.14-.29,1.53-.06l8.98,5.18c.39.23.34.62-.11.88l-4.83,2.79c-.45.26-1.14.29-1.53.06Z" style="fill: #06033e;"/>
      <path d="m288.87,232.79l-4.88-2.82c-.39-.23-.34-.62.11-.88l4.83-2.79c.45-.26,1.14-.29,1.53-.06l4.88,2.82c.39.23.34.62-.11.88l-4.83,2.79c-.45.26-1.14.29-1.53.06Z" style="fill: #06033e;"/>
      <path d="m281.15,228.34l-4.88-2.82c-.39-.23-.34-.62.11-.88l4.83-2.79c.45-.26,1.14-.29,1.53-.06l4.88,2.82c.39.23.34.62-.11.88l-4.83,2.79c-.45.26-1.14.29-1.53.06Z" style="fill: #06033e;"/>
      <path d="m273.43,223.88l-4.88-2.82c-.39-.23-.34-.62.11-.88l4.83-2.79c.45-.26,1.14-.29,1.53-.06l4.88,2.82c.39.23.34.62-.11.88l-4.83,2.79c-.45.26-1.14.29-1.53.06Z" style="fill: #06033e;"/>
      <path d="m265.72,219.43l-4.88-2.82c-.39-.23-.34-.62.11-.88l4.83-2.79c.45-.26,1.14-.29,1.53-.06l4.88,2.82c.39.23.34.62-.11.88l-4.83,2.79c-.45.26-1.14.29-1.53.06Z" style="fill: #06033e;"/>
      <path d="m296.4,237.14l-4.88-2.82c-.39-.23-.34-.62.11-.88l4.83-2.79c.45-.26,1.14-.29,1.53-.06l4.88,2.82c.39.23.34.62-.11.88l-4.83,2.79c-.45.26-1.14.29-1.53.06Z" style="fill: #06033e;"/>
      <path d="m303.93,241.49l-4.88-2.82c-.39-.23-.34-.62.11-.88l4.83-2.79c.45-.26,1.14-.29,1.53-.06l4.88,2.82c.39.23.34.62-.11.88l-4.83,2.79c-.45.26-1.14.29-1.53.06Z" style="fill: #06033e;"/>
      <path d="m311.46,245.84l-4.88-2.82c-.39-.23-.34-.62.11-.88l4.83-2.79c.45-.26,1.14-.29,1.53-.06l4.88,2.82c.39.23.34.62-.11.88l-4.83,2.79c-.45.26-1.14.29-1.53.06Z" style="fill: #06033e;"/>
      <path d="m318.99,250.19l-4.88-2.82c-.39-.23-.34-.62.11-.88l4.83-2.79c.45-.26,1.14-.29,1.53-.06l4.88,2.82c.39.23.34.62-.11.88l-4.83,2.79c-.45.26-1.14.29-1.53.06Z" style="fill: #06033e;"/>
      <path d="m326.52,254.53l-4.88-2.82c-.39-.23-.34-.62.11-.88l4.83-2.79c.45-.26,1.14-.29,1.53-.06l4.88,2.82c.39.23.34.62-.11.88l-4.83,2.79c-.45.26-1.14.29-1.53.06Z" style="fill: #06033e;"/>
      <path d="m334.05,258.88l-4.88-2.82c-.39-.23-.34-.62.11-.88l4.83-2.79c.45-.26,1.14-.29,1.53-.06l4.88,2.82c.39.23.34.62-.11.88l-4.83,2.79c-.45.26-1.14.29-1.53.06Z" style="fill: #06033e;"/>
      <path d="m341.58,263.23l-4.88-2.82c-.39-.23-.34-.62.11-.88l4.83-2.79c.45-.26,1.14-.29,1.53-.06l4.88,2.82c.39.23.34.62-.11.88l-4.83,2.79c-.45.26-1.14.29-1.53.06Z" style="fill: #06033e;"/>
      <path d="m349.11,267.58l-4.88-2.82c-.39-.23-.34-.62.11-.88l4.83-2.79c.45-.26,1.14-.29,1.53-.06l4.88,2.82c.39.23.34.62-.11.88l-4.83,2.79c-.45.26-1.14.29-1.53.06Z" style="fill: #06033e;"/>
      <path d="m356.64,271.92l-4.88-2.82c-.39-.23-.34-.62.11-.88l4.83-2.79c.45-.26,1.14-.29,1.53-.06l4.88,2.82c.39.23.34.62-.11.88l-4.83,2.79c-.45.26-1.14.29-1.53.06Z" style="fill: #06033e;"/>
      <path d="m284.9,222.04l-4.88-2.82c-.39-.23-.34-.62.11-.88l4.83-2.79c.45-.26,1.14-.29,1.53-.06l4.88,2.82c.39.23.34.62-.11.88l-4.83,2.79c-.45.26-1.14.29-1.53.06Z" style="fill: #06033e;"/>
      <path d="m277.41,217.72l-4.88-2.82c-.39-.23-.34-.62.11-.88l4.83-2.79c.45-.26,1.14-.29,1.53-.06l4.88,2.82c.39.23.34.62-.11.88l-4.83,2.79c-.45.26-1.14.29-1.53.06Z" style="fill: #06033e;"/>
      <path d="m269.92,213.39l-4.88-2.82c-.39-.23-.34-.62.11-.88l4.83-2.79c.45-.26,1.14-.29,1.53-.06l4.88,2.82c.39.23.34.62-.11.88l-4.83,2.79c-.45.26-1.14.29-1.53.06Z" style="fill: #06033e;"/>
      <path d="m262.43,209.06l-4.88-2.82c-.39-.23-.34-.62.11-.88l4.83-2.79c.45-.26,1.14-.29,1.53-.06l4.88,2.82c.39.23.34.62-.11.88l-4.83,2.79c-.45.26-1.14.29-1.53.06Z" style="fill: #06033e;"/>
      <path d="m270.13,204.61l-4.88-2.82c-.39-.23-.34-.62.11-.88l1.6-.92c.45-.26,1.14-.29,1.53-.06l4.88,2.82c.39.23.34.62-.11.88l-1.6.92c-.45.26-1.14.29-1.53.06Z" style="fill: #06033e;"/>
      <path d="m279.91,210.26l-4.88-2.82c-.39-.23-.34-.62.11-.88l1.6-.92c.45-.26,1.14-.29,1.53-.06l4.88,2.82c.39.23.34.62-.11.88l-1.6.92c-.45.26-1.14.29-1.53.06Z" style="fill: #06033e;"/>
      <path d="m287.37,214.57l-4.88-2.82c-.39-.23-.34-.62.11-.88l1.6-.92c.45-.26,1.14-.29,1.53-.06l4.88,2.82c.39.23.34.62-.11.88l-1.6.92c-.45.26-1.14.29-1.53.06Z" style="fill: #06033e;"/>
      <path d="m294.83,218.88l-4.88-2.82c-.39-.23-.34-.62.11-.88l1.6-.92c.45-.26,1.14-.29,1.53-.06l4.88,2.82c.39.23.34.62-.11.88l-1.6.92c-.45.26-1.14.29-1.53.06Z" style="fill: #06033e;"/>
      <path d="m302.29,223.18l-4.88-2.82c-.39-.23-.34-.62.11-.88l1.6-.92c.45-.26,1.14-.29,1.53-.06l4.88,2.82c.39.23.34.62-.11.88l-1.6.92c-.45.26-1.14.29-1.53.06Z" style="fill: #06033e;"/>
      <path d="m343.95,247.23l-4.88-2.82c-.39-.23-.34-.62.11-.88l1.6-.92c.45-.26,1.14-.29,1.53-.06l4.88,2.82c.39.23.34.62-.11.88l-1.6.92c-.45.26-1.14.29-1.53.06Z" style="fill: #06033e;"/>
      <path d="m351.41,251.54l-4.88-2.82c-.39-.23-.34-.62.11-.88l1.6-.92c.45-.26,1.14-.29,1.53-.06l4.88,2.82c.39.23.34.62-.11.88l-1.6.92c-.45.26-1.14.29-1.53.06Z" style="fill: #06033e;"/>
      <path d="m358.87,255.85l-4.88-2.82c-.39-.23-.34-.62.11-.88l1.6-.92c.45-.26,1.14-.29,1.53-.06l4.88,2.82c.39.23.34.62-.11.88l-1.6.92c-.45.26-1.14.29-1.53.06Z" style="fill: #06033e;"/>
      <path d="m366.34,260.16l-4.88-2.82c-.39-.23-.34-.62.11-.88l1.6-.92c.45-.26,1.14-.29,1.53-.06l4.88,2.82c.39.23.34.62-.11.88l-1.6.92c-.45.26-1.14.29-1.53.06Z" style="fill: #06033e;"/>
      <path d="m292.43,226.39l-4.88-2.82c-.39-.23-.34-.62.11-.88l4.83-2.79c.45-.26,1.14-.29,1.53-.06l4.88,2.82c.39.23.34.62-.11.88l-4.83,2.79c-.45.26-1.14.29-1.53.06Z" style="fill: #06033e;"/>
      <path d="m299.96,230.74l-4.88-2.82c-.39-.23-.34-.62.11-.88l4.83-2.79c.45-.26,1.14-.29,1.53-.06l4.88,2.82c.39.23.34.62-.11.88l-4.83,2.79c-.45.26-1.14.29-1.53.06Z" style="fill: #06033e;"/>
      <path d="m307.49,235.08l-4.88-2.82c-.39-.23-.34-.62.11-.88l4.83-2.79c.45-.26,1.14-.29,1.53-.06l4.88,2.82c.39.23.34.62-.11.88l-4.83,2.79c-.45.26-1.14.29-1.53.06Z" style="fill: #06033e;"/>
      <path d="m315.03,239.43l-4.88-2.82c-.39-.23-.34-.62.11-.88l4.83-2.79c.45-.26,1.14-.29,1.53-.06l4.88,2.82c.39.23.34.62-.11.88l-4.83,2.79c-.45.26-1.14.29-1.53.06Z" style="fill: #06033e;"/>
      <path d="m322.56,243.78l-4.88-2.82c-.39-.23-.34-.62.11-.88l4.83-2.79c.45-.26,1.14-.29,1.53-.06l4.88,2.82c.39.23.34.62-.11.88l-4.83,2.79c-.45.26-1.14.29-1.53.06Z" style="fill: #06033e;"/>
      <path d="m330.09,248.13l-4.88-2.82c-.39-.23-.34-.62.11-.88l4.83-2.79c.45-.26,1.14-.29,1.53-.06l4.88,2.82c.39.23.34.62-.11.88l-4.83,2.79c-.45.26-1.14.29-1.53.06Z" style="fill: #06033e;"/>
      <path d="m337.62,252.47l-4.88-2.82c-.39-.23-.34-.62.11-.88l4.83-2.79c.45-.26,1.14-.29,1.53-.06l4.88,2.82c.39.23.34.62-.11.88l-4.83,2.79c-.45.26-1.14.29-1.53.06Z" style="fill: #06033e;"/>
      <path d="m345.15,256.82l-4.88-2.82c-.39-.23-.34-.62.11-.88l4.83-2.79c.45-.26,1.14-.29,1.53-.06l4.88,2.82c.39.23.34.62-.11.88l-4.83,2.79c-.45.26-1.14.29-1.53.06Z" style="fill: #06033e;"/>
      <path d="m352.68,261.17l-4.88-2.82c-.39-.23-.34-.62.11-.88l4.83-2.79c.45-.26,1.14-.29,1.53-.06l4.88,2.82c.39.23.34.62-.11.88l-4.83,2.79c-.45.26-1.14.29-1.53.06Z" style="fill: #06033e;"/>
      <path d="m249.38,226.93l-14.36-8.29c-.39-.23-.34-.62.11-.88l4.83-2.79c.45-.26,1.14-.29,1.53-.06l14.36,8.29c.39.23.34.62-.11.88l-4.83,2.79c-.45.26-1.14.29-1.53.06Z" style="fill: #06033e;"/>
      <path d="m341.89,280.34l-14.36-8.29c-.39-.23-.34-.62.11-.88l4.83-2.79c.45-.26,1.14-.29,1.53-.06l14.36,8.29c.39.23.34.62-.11.88l-4.83,2.79c-.45.26-1.14.29-1.53.06Z" style="fill: #06033e;"/>
      <path d="m311.78,272.55l-4.88-2.82c-.39-.23-.34-.62.11-.88l5.76-3.32c.45-.26,1.14-.29,1.53-.06l4.88,2.82c.39.23.34.62-.11.88l-5.76,3.32c-.45.26-1.14.29-1.53.06Z" style="fill: #06033e;"/>
      <path d="m257.09,240.98l-7.8-4.5c-.39-.23-.34-.62.11-.88l5.76-3.32c.45-.26,1.14-.29,1.53-.06l7.8,4.5c.39.23.34.62-.11.88l-5.76,3.32c-.45.26-1.14.29-1.53.06Z" style="fill: #06033e;"/>
      <path d="m304.52,268.36l-7.8-4.5c-.39-.23-.34-.62.11-.88l5.76-3.32c.45-.26,1.14-.29,1.53-.06l7.8,4.5c.39.23.34.62-.11.88l-5.76,3.32c-.45.26-1.14.29-1.53.06Z" style="fill: #06033e;"/>
      <path d="m267.96,247.25l-7.8-4.5c-.39-.23-.34-.62.11-.88l5.76-3.32c.45-.26,1.14-.29,1.53-.06l7.8,4.5c.39.23.34.62-.11.88l-5.76,3.32c-.45.26-1.14.29-1.53.06Z" style="fill: #06033e;"/>
      <path d="m267.61,238.51l33.9,19.58c.42.24.42.64,0,.88l-5.87,3.39c-.42.24-1.1.24-1.52,0l-33.9-19.57,7.39-4.27Z" style="fill: #06033e;"/>
      <path d="m332.83,280.44l5.43,3.14c.32.19.28.51-.09.72l-2.35,1.36c-.37.21-.93.24-1.25.05l-5.43-3.14c-.32-.19-.28-.51.09-.72l2.35-1.36c.37-.21.93-.24,1.25-.05Z" style="fill: #06033e;"/>
      <path d="m325.23,276.05l5.43,3.14c.32.19.28.51-.09.72l-2.35,1.36c-.37.21-.93.24-1.25.05l-5.43-3.14c-.32-.19-.28-.51.09-.72l2.35-1.36c.37-.21.93-.24,1.25-.05Z" style="fill: #06033e;"/>
      <path d="m317.7,271.7l5.43,3.14c.32.19.28.51-.09.72l-2.35,1.36c-.37.21-.93.24-1.25.05l-5.43-3.14c-.32-.19-.28-.51.09-.72l2.35-1.36c.37-.21.93-.24,1.25-.05Z" style="fill: #06033e;"/>
      <path d="m329.39,273.65l5.43,3.14c.32.19.28.51-.09.72l-2.35,1.36c-.37.21-.93.24-1.25.05l-5.43-3.14c-.32-.19-.28-.51.09-.72l2.35-1.36c.37-.21.93-.24,1.25-.05Z" style="fill: #06033e;"/>
    </g>
    <path d="m409.09,264.86l-143.86-83.06c-2.26-1.31-3.44-4.49-2.64-7.11l32.53-105.63c.81-2.62,3.29-3.68,5.56-2.38l143.86,83.06c2.26,1.31,3.44,4.49,2.64,7.11l-32.53,105.63c-.81,2.62-3.29,3.68-5.56,2.38Z" style="fill: url(#_Áåçûìÿííûé_ãðàäèåíò_343-2);"/>
    <path d="m407.73,261.16l-139.54-80.63c-2.16-1.25-3.29-4.3-2.52-6.8l31.1-100.98c.77-2.51,3.15-3.53,5.32-2.28l139.54,80.63c2.16,1.25,3.29,4.3,2.52,6.8l-31.1,100.98c-.77,2.51-3.15,3.53-5.32,2.28Z" style="fill: url(#_Áåçûìÿííûé_ãðàäèåíò_441);"/>
    <path d="m407.73,261.16l-139.54-80.63c-2.16-1.25-3.29-4.3-2.52-6.8l31.1-100.98c.77-2.51,3.15-3.53,5.32-2.28l139.54,80.63c2.16,1.25,3.29,4.3,2.52,6.8l-31.1,100.98c-.77,2.51-3.15,3.53-5.32,2.28Z" style="fill: #06033e; opacity: .4;"/>
    <path d="m407.73,261.16l-139.54-80.63c-2.16-1.25-3.29-4.3-2.52-6.8l31.1-100.98c.77-2.51,3.15-3.53,5.32-2.28l139.54,80.63c2.16,1.25,3.29,4.3,2.52,6.8l-31.1,100.98c-.77,2.51-3.15,3.53-5.32,2.28Z" style="fill: #06033e; opacity: .4;"/>
    <path d="m400.23,230.3l-94.46-54.54c-1.49-.86-2.26-2.95-1.73-4.67l21.36-69.36c.53-1.72,2.16-2.42,3.65-1.56l94.46,54.54c1.49.86,2.26,2.95,1.73,4.67l-21.36,69.36c-.53,1.72-2.16,2.42-3.65,1.56Z" style="fill: #06033e; opacity: .5;"/>
    <path d="m387.47,231.97l-94.46-54.54c-1.49-.86-2.26-2.95-1.73-4.67l21.36-69.36c.53-1.72,2.16-2.42,3.65-1.56l94.46,54.54c1.49.86,2.26,2.95,1.73,4.67l-21.36,69.36c-.53,1.72-2.16,2.42-3.65,1.56Z" style="fill: url(#_Áåçûìÿííûé_ãðàäèåíò_343-3);"/>
    <g style="fill: none; opacity: .5;">
      <path d="m387.47,231.97l-94.46-54.54c-1.49-.86-2.26-2.95-1.73-4.67l21.36-69.36c.53-1.72,2.16-2.42,3.65-1.56l94.46,54.54c1.49.86,2.26,2.95,1.73,4.67l-21.36,69.36c-.53,1.72-2.16,2.42-3.65,1.56Z" style="fill: #06033e;"/>
    </g>
    <path d="m410.75,156.38l-94.46-54.54c-.93-.54-1.92-.46-2.66.09.45-.01.91.09,1.36.35l94.46,54.54c1.49.86,2.26,2.95,1.73,4.67l-21.36,69.36c-.2.64-.55,1.14-.99,1.47,1.01-.03,1.92-.72,2.28-1.91l21.36-69.36c.53-1.72-.25-3.81-1.73-4.67Z" style="fill: #fff;"/>
    <path d="m268.33,288.61c-1.3,0-2.55-.27-3.5-.82h0s-37.85-21.85-37.85-21.85c-1-.58-1.55-1.41-1.55-2.33,0-1.07.76-2.13,2.09-2.89l19.48-11.25c2.38-1.37,5.87-1.51,7.96-.31l37.84,21.85c1,.58,1.55,1.41,1.56,2.33,0,1.07-.76,2.13-2.09,2.89l-19.48,11.25c-1.29.75-2.91,1.13-4.46,1.13Zm-16.86-39.16c-1.37,0-2.82.33-3.93.97l-19.48,11.25c-.98.57-1.54,1.28-1.54,1.95s.55,1.12,1.01,1.38l37.85,21.85c1.72.99,4.86.85,6.86-.31l19.48-11.25c.98-.57,1.54-1.27,1.54-1.95s-.55-1.12-1.01-1.38l-37.84-21.85c-.77-.44-1.82-.66-2.94-.66Z" style="fill: #06033e; opacity: .4;"/>
  </g>
  <g>
    <g>
      <path d="m339.3,138.24l-5.84-3.37c-.54-.31-.83-1.06-.65-1.68h0c.18-.61.77-.86,1.31-.55l5.84,3.37c.54.31.83,1.06.65,1.68h0c-.18.61-.77.86-1.31.55Z" style="fill: #fff;"/>
      <path d="m353.21,146.27l-8.61-4.97c-.54-.31-.83-1.06-.65-1.68h0c.18-.61.77-.86,1.31-.55l8.61,4.97c.54.31.83,1.06.65,1.68h0c-.18.61-.77.86-1.31.55Z" style="fill: #fff;"/>
      <path d="m327.52,164.24l-5.84-3.37c-.54-.31-.83-1.06-.65-1.68h0c.18-.61.77-.86,1.31-.55l5.84,3.37c.54.31.83,1.06.65,1.68h0c-.18.61-.77.86-1.31.55Z" style="fill: #fff;"/>
      <path d="m339.92,171.39l-8.61-4.97c-.54-.31-.83-1.06-.65-1.68h0c.18-.61.77-.86,1.31-.55l8.61,4.97c.54.31.83,1.06.65,1.68h0c-.18.61-.77.86-1.31.55Z" style="fill: #fff;"/>
      <path d="m321.8,133.6l-3.65-2.11c-.54-.31-.83-1.06-.65-1.68h0c.18-.61.77-.86,1.31-.55l3.65,2.11c.54.31.83,1.06.65,1.68h0c-.18.61-.77.86-1.31.55Z" style="fill: #fff;"/>
      <path d="m332.78,145.41l-11.15-6.44c-.54-.31-.83-1.06-.65-1.68h0c.18-.61.77-.86,1.31-.55l11.15,6.44c.54.31.83,1.06.65,1.68h0c-.18.61-.77.86-1.31.55Z" style="fill: #fff;"/>
      <path d="m322.5,150.4l-3.65-2.11c-.54-.31-.83-1.06-.65-1.68h0c.18-.61.77-.86,1.31-.55l3.65,2.11c.54.31.83,1.06.65,1.68h0c-.18.61-.77.86-1.31.55Z" style="fill: #fff;"/>
      <path d="m341.26,183.1l-9.74-5.63c-.54-.31-.83-1.06-.65-1.68h0c.18-.61.77-.86,1.31-.55l9.74,5.63c.54.31.83,1.06.65,1.68h0c-.18.61-.77.86-1.31.55Z" style="fill: #fff;"/>
      <path d="m318.41,158.98l-2.34-1.35c-.54-.31-.83-1.06-.65-1.68h0c.18-.61.77-.86,1.31-.55l2.34,1.35c.54.31.83,1.06.65,1.68h0c-.18.61-.77.86-1.31.55Z" style="fill: #fff;"/>
      <path d="m316.19,168.63l-2.91-1.68c-.54-.31-.83-1.06-.65-1.68h0c.18-.61.77-.86,1.31-.55l2.91,1.68c.54.31.83,1.06.65,1.68h0c-.18.61-.77.86-1.31.55Z" style="fill: #fff;"/>
      <path d="m327.51,175.16l-7.67-4.43c-.54-.31-.83-1.06-.65-1.68h0c.18-.61.77-.86,1.31-.55l7.67,4.43c.54.31.83,1.06.65,1.68h0c-.18.61-.77.86-1.31.55Z" style="fill: #fff;"/>
      <path d="m317.41,174.8l-5.51-3.18c-.54-.31-.83-1.06-.65-1.68h0c.18-.61.77-.86,1.31-.55l5.51,3.18c.54.31.83,1.06.65,1.68h0c-.18.61-.77.86-1.31.55Z" style="fill: #fff;"/>
      <path d="m349.62,187.95l-3.54-2.04c-.54-.31-.83-1.06-.65-1.68h0c.18-.61.77-.86,1.31-.55l3.54,2.04c.54.31.83,1.06.65,1.68h0c-.18.61-.77.86-1.31.55Z" style="fill: #fff;"/>
      <path d="m336.07,158.24l-9.74-5.63c-.54-.31-.83-1.06-.65-1.68h0c.18-.61.77-.86,1.31-.55l9.74,5.63c.54.31.83,1.06.65,1.68h0c-.18.61-.77.86-1.31.55Z" style="fill: #fff;"/>
    </g>
    <path d="m337.22,153.44l-16.98-9.8c-.54-.31-.83-1.06-.65-1.68h0c.18-.61.77-.86,1.31-.55l16.98,9.8c.54.31.83,1.06.65,1.68h0c-.18.61-.77.86-1.31.55Z" style="fill: #e8975b;"/>
    <path d="m327.2,158.59l-9.74-5.63c-.54-.31-.83-1.06-.65-1.68h0c.18-.61.77-.86,1.31-.55l9.74,5.63c.54.31.83,1.06.65,1.68h0c-.18.61-.77.86-1.31.55Z" style="fill: #e8975b;"/>
    <path d="m343.46,162.51l-3.54-2.04c-.54-.31-.83-1.06-.65-1.68h0c.18-.61.77-.86,1.31-.55l3.54,2.04c.54.31.83,1.06.65,1.68h0c-.18.61-.77.86-1.31.55Z" style="fill: #e8975b;"/>
    <path d="m379.47,161.43l-20.96-12.1c-.54-.31-.83-1.06-.65-1.68h0c.18-.61.77-.86,1.31-.55l20.96,12.1c.54.31.83,1.06.65,1.68h0c-.18.61-.77.86-1.31.55Z" style="fill: #e8975b;"/>
    <path d="m326.39,169.05l-11.71-6.76c-.54-.31-.83-1.06-.65-1.68h0c.18-.61.77-.86,1.31-.55l11.71,6.76c.54.31.83,1.06.65,1.68h0c-.18.61-.77.86-1.31.55Z" style="fill: #f8359e;"/>
    <path d="m328.16,131.8l-8.61-4.97c-.54-.31-.83-1.06-.65-1.68h0c.18-.61.77-.86,1.31-.55l8.61,4.97c.54.31.83,1.06.65,1.68h0c-.18.61-.77.86-1.31.55Z" style="fill: #f8359e;"/>
    <path d="m315.61,179.22l-9.97-5.76c-.54-.31-.83-1.06-.65-1.68h0c.18-.61.77-.86,1.31-.55l9.97,5.76c.54.31.83,1.06.65,1.68h0c-.18.61-.77.86-1.31.55Z" style="fill: #e8975b;"/>
  </g>
  <g>
    <path d="m381.82,150.65l-4.27-2.46c-.4-.23-.61-.78-.47-1.23h0c.13-.45.56-.63.96-.4l4.27,2.46c.4.23.61.78.47,1.23h0c-.13.45-.56.63-.96.4Z" style="fill: #fff;"/>
    <path d="m389.97,155.35l-4.27-2.46c-.4-.23-.61-.78-.47-1.23h0c.13-.45.56-.63.96-.4l4.27,2.46c.4.23.61.78.47,1.23h0c-.13.45-.56.63-.96.4Z" style="fill: #fff;"/>
    <path d="m398.11,160.05l-4.27-2.46c-.4-.23-.61-.78-.47-1.23h0c.13-.45.56-.63.96-.4l4.27,2.46c.4.23.61.78.47,1.23h0c-.13.45-.56.63-.96.4Z" style="fill: #fff;"/>
    <path d="m402.11,162.36l-.13-.08c-.4-.23-.61-.78-.47-1.23h0c.13-.45.56-.63.96-.4l.13.08c.4.23.61.78.47,1.23h0c-.13.45-.56.63-.96.4Z" style="fill: #f8359e;"/>
  </g>
  <path d="m181.8,212.32c-2.7,0-5.4-.7-7.81-2.09h0l-28.59-16.51c-1.24-.72-1.98-2-1.98-3.43s.74-2.71,1.98-3.43l28.59-16.51c4.82-2.78,10.81-2.78,15.63,0l28.59,16.51c1.24.72,1.98,2,1.98,3.43s-.74,2.71-1.98,3.43l-28.59,16.51c-2.41,1.39-5.11,2.09-7.81,2.09Zm-6.88-3.7c4.25,2.45,9.52,2.45,13.77,0l28.59-16.51c.66-.38,1.05-1.06,1.05-1.82s-.39-1.44-1.05-1.82l-28.59-16.51c-4.25-2.45-9.52-2.45-13.77,0l-28.59,16.51c-.66.38-1.05,1.06-1.05,1.82s.39,1.44,1.05,1.82l28.59,16.51Z" style="fill: url(#_Áåçûìÿííûé_ãðàäèåíò_33-5);"/>
  <g>
    <path d="m195.54,198.7c-7.67,4.43-20.11,4.43-27.78,0-7.67-4.43-7.67-11.61,0-16.04,7.67-4.43,20.11-4.43,27.78,0,7.67,4.43,7.67,11.61,0,16.04Z" style="fill: #020230; opacity: .6;"/>
    <path d="m210.77,109.86h-55.94l5.2,60.57h0c0,3.36,2.22,6.73,6.67,9.29,8.89,5.13,23.31,5.13,32.2,0,4.45-2.57,6.67-5.93,6.67-9.3l5.2-60.57Z" style="fill: url(#_Áåçûìÿííûé_ãðàäèåíò_199);"/>
    <path d="m210.77,109.86h-55.94l.86,9.96c1.28,1.64,3.01,3.22,5.18,4.66,10.69,7.09,28.33,8.46,40.36,3.35l-1.86,44.3c-.08,1.93-.75,3.81-2,5.28-1.81,2.13-5.3,4.64-12.01,6.06,4.95-.32,9.75-1.57,13.54-3.76,4.45-2.57,6.67-5.93,6.67-9.3l4.17-48.57h0l1.03-11.99Z" style="fill: #06033e; opacity: .4;"/>
    <ellipse cx="182.8" cy="109.86" rx="27.97" ry="16.15" style="fill: #06033e; opacity: .4;"/>
    <ellipse cx="182.8" cy="104.17" rx="24.09" ry="13.91" style="fill: #06033e; opacity: .4;"/>
    <path d="m212.42,109.1h0s0-.05,0-.05c0-.03,0-.06,0-.08l-.54-5.42-.02.06c-.24-4.1-3.07-8.17-8.49-11.3-11.36-6.56-29.77-6.56-41.13,0-5.56,3.21-8.39,7.4-8.51,11.61h0s-.51,4.81-.51,4.81c-.01.13-.03.25-.04.38v.08s0,0,0,0c-.31,4.6,2.58,9.26,8.66,12.77,11.58,6.69,30.36,6.69,41.94,0,6.12-3.53,9.01-8.23,8.66-12.86Z" style="fill: url(#_Áåçûìÿííûé_ãðàäèåíò_144);"/>
    <ellipse cx="182.8" cy="104.17" rx="24.09" ry="13.91" style="fill: url(#_Áåçûìÿííûé_ãðàäèåíò_483);"/>
    <ellipse cx="181.65" cy="104.17" rx="24.09" ry="13.91" style="fill: url(#_Áåçûìÿííûé_ãðàäèåíò_483-2);"/>
    <path d="m168.62,96.41c9.41-5.43,24.66-5.43,34.07,0,.12.07.22.14.34.22-.91-.81-1.97-1.58-3.19-2.29-9.41-5.43-24.66-5.43-34.07,0-9.29,5.36-9.39,14.01-.34,19.46-6.04-5.39-4.99-12.66,3.19-17.38Z" style="fill: #06033e; opacity: .4;"/>
    <path d="m165.76,96.75c9.41-5.43,24.66-5.43,34.07,0,4.17,2.41,6.49,5.48,6.96,8.63.59-3.95-1.73-8.02-6.96-11.04-9.41-5.43-24.66-5.43-34.07,0-5.24,3.02-7.55,7.09-6.96,11.04.47-3.15,2.79-6.22,6.96-8.63Z" style="fill: url(#_Áåçûìÿííûé_ãðàäèåíò_193);"/>
    <path d="m203.54,92.44c-11.34-6.68-29.82-6.84-41.28-.36-11.46,6.48-11.55,17.15-.21,23.83,11.34,6.68,29.82,6.84,41.28.36,11.46-6.48,11.55-17.15.21-23.83Zm-3.71,21.57c-3.14,1.81-6.94,3.01-10.95,3.61l-.44-1.44c-.18-.58-.71-.98-1.32-.98h-8.65c-.61,0-1.14.4-1.32.98l-.44,1.44c-4.01-.6-7.81-1.8-10.95-3.61-9.41-5.43-9.41-14.24,0-19.67,9.41-5.43,24.66-5.43,34.07,0,9.41,5.43,9.41,14.24,0,19.67Z" style="fill: url(#_Áåçûìÿííûé_ãðàäèåíò_223);"/>
    <g>
      <path d="m199.83,93.31c-9.41-5.43-24.66-5.43-34.07,0-4.93,2.85-7.27,6.62-7.03,10.35.22-3.39,2.56-6.74,7.03-9.32,9.41-5.43,24.66-5.43,34.07,0,4.48,2.59,6.82,5.93,7.04,9.32.24-3.73-2.1-7.5-7.04-10.35Z" style="fill: #fff;"/>
      <path d="m203.33,115.24c-11.46,6.48-29.94,6.32-41.28-.36-5.4-3.18-8.2-7.26-8.42-11.37-.22,4.45,2.58,8.95,8.42,12.4,11.34,6.68,29.82,6.84,41.28.36,6-3.4,8.88-7.94,8.63-12.46-.21,4.17-3.08,8.3-8.63,11.43Z" style="fill: #fff;"/>
    </g>
    <rect x="179.56" y="116.97" width="6.48" height="1.4" rx=".65" ry=".65" style="fill: #0c0a78;"/>
    <path d="m185.38,116.97h-5.17c-.36,0-.65.29-.65.65v.09c0,.06.02.12.04.17.08-.27.32-.48.62-.48h5.17c.3,0,.54.2.62.48.02-.06.04-.11.04-.17v-.09c0-.36-.29-.65-.65-.65Z" style="fill: url(#_Áåçûìÿííûé_ãðàäèåíò_193-2);"/>
    <g>
      <path d="m183.59,164.21c-.63,2.39-3.08,3.8-5.47,3.17-2.39-.63-3.8-3.08-3.17-5.47.63-2.39,2.88-3.06,5.27-2.43,2.39.63,4,2.34,3.37,4.72Z" style="fill: #e8975b;"/>
      <path d="m187.11,159.5c-.9.88-2.05.77-2.81-.02-.76-.78-.85-1.93.05-2.81.9-.88,2.61-1.31,3.37-.53.76.78.29,2.48-.61,3.36Z" style="fill: #e8975b;"/>
      <path d="m182.43,155.76c-.22,1.24-1.22,1.82-2.3,1.62-1.08-.19-1.82-1.08-1.6-2.32s1.36-2.59,2.44-2.39c1.08.19,1.68,1.85,1.46,3.09Z" style="fill: #e8975b;"/>
      <path d="m176.67,155.19c.48,1.16-.06,2.19-1.07,2.6-1.01.42-2.11.07-2.59-1.1-.48-1.16-.24-2.91.77-3.33,1.01-.42,2.41.66,2.89,1.82Z" style="fill: #e8975b;"/>
    </g>
  </g>
  <path d="m184.63,117.67s15.64-5.24,9.31-23.21-18.66-23.45-13.7-37.82c0,0-7.78,11.64-.51,27.38s8.87,13.94,8.78,21.47c-.1,8.95-7.33,12.18-7.33,12.18h3.44Z" style="fill: #fff; opacity: .5;"/>
  <path d="m186.03,59.13s-1.63-10.75,8.46-21.58c0,0-8.92,19.92-6,29.75,0,0-2.36-6.25-2.46-8.17Z" style="fill: #fff; opacity: .5;"/>
</svg>